<svg xmlns="http://www.w3.org/2000/svg" width="378.636" height="258.24" viewBox="0 0 378.636 258.24">
  <g id="fullLogo_2lines_leverFinance_onLightMode" transform="translate(0 -40.672)">
    <g id="logoIcon_onLightMode" transform="translate(97.543 40.672)">
      <path id="Path_1" data-name="Path 1" d="M92.4,0,0,159.652h71.37L161.376,0Z" transform="translate(0 0)" fill="#5a5a5a"/>
      <path id="Path_2" data-name="Path 2" d="M161.375,0,0,159.652H71.369Z" transform="translate(0.001 0)" fill="#333"/>
      <g id="Group_516" data-name="Group 516" transform="translate(93.335 79.826)">
        <path id="Path_3" data-name="Path 3" d="M54.1,119.626h90.215L99.275,39.8Z" transform="translate(-54.1 -39.8)" fill="#5aa800"/>
        <path id="Path_4" data-name="Path 4" d="M96.9,119.626h35.542L87.4,39.8Z" transform="translate(-42.224 -39.8)" fill="#7fdf00"/>
      </g>
    </g>
    <g id="Group_559" data-name="Group 559">
      <path id="Path_15" data-name="Path 15" d="M12.292,24.53H42.025v7.48H3.69V-28.578h8.6Zm57.035.187H99.059V32.01H60.725V-28.578H98.592v7.293H69.326V-2.4H94.945L94.01,4.708H69.326Zm91.723-53.295h8.6v.561L147.3,32.01H136.833L114.58-28.017v-.561h8.976l18.793,52.36Zm35.81,53.295h29.733V32.01H188.258V-28.578h37.867v7.293H196.86V-2.4h25.619l-.935,7.106H196.86Zm96.4,6.732v.561h-9.911L265.862,8.354h-8.976V32.01h-8.6V-28.578h19.728a28.81,28.81,0,0,1,12.015,2.244,16.368,16.368,0,0,1,7.386,6.264,17.457,17.457,0,0,1,2.478,9.35,19.189,19.189,0,0,1-1.636,7.947,17.107,17.107,0,0,1-4.909,6.311,20.593,20.593,0,0,1-8.134,3.88Zm-36.371-30.2H266.7q7.013,0,10.612-3.039t3.6-8.555q0-5.329-3.319-8.134t-9.771-2.8H256.886Z" transform="translate(-3.69 266.903)" fill="#5a5a5a"/>
      <path id="Path_392" data-name="Path 392" d="M46.853-64.693H17.677v20.32H43.124l-.932,7.27H17.677v25.54H9.1v-60.4H46.853Zm22.464,4.008a5.3,5.3,0,0,1-2.8-.792,6.157,6.157,0,0,1-2.1-2.1,5.3,5.3,0,0,1-.792-2.8,5.46,5.46,0,0,1,.792-2.89,6.158,6.158,0,0,1,2.1-2.1,5.3,5.3,0,0,1,2.8-.792,5.46,5.46,0,0,1,2.89.792,6.157,6.157,0,0,1,2.1,2.1,5.46,5.46,0,0,1,.792,2.89,5.3,5.3,0,0,1-.792,2.8,6.157,6.157,0,0,1-2.1,2.1A5.46,5.46,0,0,1,69.316-60.685ZM65.4-11.563V-52.389l8.016-.932v41.759Z" transform="translate(303.54 310.475)" fill="#7fdf00"/>
    </g>
  </g>
</svg>
